<svg width="336" height="400" viewBox="0 0 336 400" fill="none" xmlns="http://www.w3.org/2000/svg">
<path d="M332.88 160.58C325.605 156.703 321.478 173.312 314.572 169.725C312.43 71.2542 286.042 0 164.507 0C48.8804 0 22.4908 71.2542 20.3458 169.725C13.4443 173.312 9.31723 156.703 2.03723 160.58C-4.00229 168.924 4.96111 175.512 8.58074 185.403C16.3817 206.763 13.7361 236.146 32.1228 245.49C76.7803 450.11 258.02 449.2 302.803 245.49C321.185 236.144 318.536 206.761 326.345 185.403C329.955 175.51 338.92 168.922 332.88 160.58ZM76.8431 286.2C76.8431 286.2 92.4942 315.859 150.612 322.997C150.612 322.997 91.1332 342.598 76.8431 286.2ZM184.309 322.997C242.425 315.859 258.076 286.2 258.076 286.2C243.794 342.598 184.309 322.997 184.309 322.997Z" fill="#E4E4E4"/>
<path d="M49.7275 221.769L76.7685 174.678L119.217 209.57L49.7275 221.769Z" fill="#BE288C"/>
<path d="M119.212 209.57L152.397 153.893L76.7634 174.678L119.212 209.57Z" fill="#96148C"/>
<path d="M119.217 209.569L137.655 238.319L49.7275 221.768L119.217 209.569Z" fill="#AA1E8C"/>
<path d="M119.214 209.569L168 226.286L137.652 238.319L119.214 209.569Z" fill="#78008C"/>
<path d="M152.4 153.893L168 226.285L119.214 209.57L152.4 153.893Z" fill="#BE288C"/>
<path d="M137.652 238.319L168 248L167.999 226.286L137.652 238.319Z" fill="#AA1E8C"/>
<path d="M168 226.285L167.987 192L152.402 153.893L168 226.285Z" fill="#820A8C"/>
<path d="M152.397 153.893L107.306 149.577L76.7634 174.678L152.397 153.893Z" fill="#78008C"/>
<path d="M76.7672 174.678L44.3438 187.022L49.7262 221.769L76.7672 174.678Z" fill="#78008C"/>
<path d="M137.655 238.32L76.7685 261.913L49.7275 221.768L137.655 238.32Z" fill="#820A8C"/>
<path d="M137.65 238.32L76.7634 261.913L129.43 281.143L137.65 238.32Z" fill="#BE288C"/>
<path d="M168 248L129.433 281.143L137.652 238.32L168 248Z" fill="#96148C"/>
<path d="M107.308 149.577L67.0312 118.94L76.7654 174.678L107.308 149.577Z" fill="#FAF032"/>
<path d="M67.0312 118.94L124.328 113.267L107.308 149.577L67.0312 118.94Z" fill="#84AE00"/>
<path d="M124.332 113.267L152.403 153.892L107.312 149.577L124.332 113.267Z" fill="#D2DC32"/>
<path d="M124.33 113.267L168 140.572L152.402 153.892L124.33 113.267Z" fill="#E6E632"/>
<path d="M67.0331 118.94L44.3438 187.022L76.7672 174.678L67.0331 118.94Z" fill="#D2DC32"/>
<path d="M168 140.572V192L152.402 153.893L168 140.572Z" fill="#84AE00"/>
<path d="M44.3435 187.022L41.1428 104.831L67.0329 118.94L44.3435 187.022Z" fill="#84AE00"/>
<path d="M41.1428 104.831L81.552 78.4561L67.0329 118.94L41.1428 104.831Z" fill="#D2DC32"/>
<path d="M124.328 113.267L67.0312 118.94L81.5504 78.4561L124.328 113.267Z" fill="#E6E632"/>
<path d="M124.331 113.267L146.165 68.2452L81.5535 78.4567L124.331 113.267Z" fill="#BED232"/>
<path d="M168 140.572L124.33 113.267L146.165 68.2452L168 140.572Z" fill="#FAF032"/>
<path d="M41.1428 104.831L54.0895 57.0093L81.552 78.4564L41.1428 104.831Z" fill="#84AE00"/>
<path d="M168 140.571V53.7141L146.161 68.245L168 140.571Z" fill="#2D7DC3"/>
<path d="M81.5535 78.4567L107.311 45.7706L146.165 68.2452L81.5535 78.4567Z" fill="#D2DC32"/>
<path d="M54.0938 57.0096L107.314 45.7706L81.5562 78.4567L54.0938 57.0096Z" fill="#E6E632"/>
<path d="M168 53.7143L146.166 68.2452L107.312 45.7706L168 53.7143Z" fill="#2DA5D7"/>
<path d="M54.0938 57.0093L107.314 45.7703L95.6861 28.7315L54.0938 57.0093Z" fill="#D2DC32"/>
<path d="M168 53.7143L143.612 24L107.312 45.7704L168 53.7143Z" fill="#2DA5D7"/>
<path d="M95.6785 28.7316L143.606 24L107.307 45.7704L95.6785 28.7316Z" fill="#2D69B9"/>
<path d="M168 248V273.143L129.433 281.143L168 248Z" fill="#820A8C"/>
<path d="M143.612 24L168.002 38.2857V53.7143L143.612 24Z" fill="#2D7DC3"/>
<path d="M286.273 221.77L259.237 174.679L216.795 209.569L286.273 221.77Z" fill="#FAD232"/>
<path d="M216.791 209.569L183.612 153.892L259.233 174.679L216.791 209.569Z" fill="#E6AA32"/>
<path d="M216.792 209.569L198.357 238.319L286.27 221.77L216.792 209.569Z" fill="#F0BE32"/>
<path d="M216.797 209.569L168 226.286L198.363 238.319L216.797 209.569Z" fill="#D28232"/>
<path d="M183.617 153.892L168 226.286L216.797 209.569L183.617 153.892Z" fill="#FAD232"/>
<path d="M198.363 238.319L168 248V226.286L198.363 238.319Z" fill="#96148C"/>
<path d="M168.009 226.286V192L183.617 153.892L168.009 226.286Z" fill="#96148C"/>
<path d="M183.612 153.892L228.697 149.578L259.233 174.679L183.612 153.892Z" fill="#D28232"/>
<path d="M259.237 174.679L291.655 187.022L286.273 221.77L259.237 174.679Z" fill="#D28232"/>
<path d="M198.357 238.319L259.234 261.913L286.27 221.77L198.357 238.319Z" fill="#DC9632"/>
<path d="M198.357 238.32L259.234 261.913L206.575 281.143L198.357 238.32Z" fill="#FAD232"/>
<path d="M168 248L206.58 281.143L198.362 238.32L168 248Z" fill="#AA1E8C"/>
<path d="M228.701 149.578L268.968 118.939L259.237 174.679L228.701 149.578Z" fill="#E6AA32"/>
<path d="M268.967 118.939L211.683 113.266L228.699 149.578L268.967 118.939Z" fill="#2D5FAF"/>
<path d="M211.681 113.266L183.612 153.892L228.697 149.578L211.681 113.266Z" fill="#2D7DC3"/>
<path d="M211.682 113.266L168 140.572L183.613 153.892L211.682 113.266Z" fill="#2DA5D7"/>
<path d="M268.967 118.939L291.655 187.021L259.237 174.679L268.967 118.939Z" fill="#F0BE32"/>
<path d="M168 140.571V192L183.613 153.892L168 140.571Z" fill="#2D5FAF"/>
<path d="M291.656 187.021L294.858 104.83L268.969 118.939L291.656 187.021Z" fill="#D28232"/>
<path d="M294.855 104.83L254.451 78.4548L268.966 118.939L294.855 104.83Z" fill="#FAD232"/>
<path d="M211.683 113.266L268.967 118.939L254.452 78.4548L211.683 113.266Z" fill="#2DA5D7"/>
<path d="M211.686 113.266L189.853 68.2438L254.454 78.4553L211.686 113.266Z" fill="#2D69B9"/>
<path d="M168 140.571L211.682 113.266L189.85 68.2438L168 140.571Z" fill="#2DA5D7"/>
<path d="M294.855 104.83L281.912 57.0079L254.451 78.4551L294.855 104.83Z" fill="#2D5FAF"/>
<path d="M168 140.571V53.7143L189.85 68.2436L168 140.571Z" fill="#2D5FAF"/>
<path d="M254.454 78.4553L228.702 45.7708L189.853 68.2438L254.454 78.4553Z" fill="#2D7DC3"/>
<path d="M281.915 57.0082L228.701 45.7708L254.453 78.4553L281.915 57.0082Z" fill="#2DA5D7"/>
<path d="M168 53.7144L189.853 68.2438L228.703 45.7708L168 53.7144Z" fill="#2D69B9"/>
<path d="M281.915 57.0078L228.701 45.7704L240.326 28.7298L281.915 57.0078Z" fill="#2D7DC3"/>
<path d="M168 53.7143L192.409 24L228.703 45.7705L168 53.7143Z" fill="#2DA5D7"/>
<path d="M240.325 28.7299L192.406 24L228.7 45.7705L240.325 28.7299Z" fill="#2D69B9"/>
<path d="M168 248V273.143L206.578 281.143L168 248Z" fill="#BE288C"/>
<path d="M192.409 24L168 38.2857V53.7143L192.409 24Z" fill="#2D5FAF"/>
</svg>
