<svg width="160" height="160" viewBox="0 0 160 160" fill="none" xmlns="http://www.w3.org/2000/svg">
<path d="M48 -4.89568e-06L160 7.01153e-08L160 160L48 -4.89568e-06Z" fill="#E8ED98"/>
<circle cx="54" cy="87" r="45" fill="white" stroke="#38393D" stroke-width="2"/>
<path d="M59 35.01C86.352 35.5572 108.484 58.5024 108.991 87H59V35.01Z" fill="#D2DC32" stroke="#38393D" stroke-width="2"/>
<mask id="path-4-inside-1_378_1301" fill="white">
<path d="M115.649 58.8815C115.91 58.3946 116.516 58.2114 117.003 58.4722L132.648 66.8545C133.135 67.1153 133.318 67.7213 133.057 68.2082L96.0733 137.24C95.8125 137.727 95.2064 137.91 94.7196 137.649L79.074 129.267C78.5871 129.006 78.4039 128.4 78.6648 127.913L115.649 58.8815Z"/>
</mask>
<path d="M115.649 58.8815C115.91 58.3946 116.516 58.2114 117.003 58.4722L132.648 66.8545C133.135 67.1153 133.318 67.7213 133.057 68.2082L96.0733 137.24C95.8125 137.727 95.2064 137.91 94.7196 137.649L79.074 129.267C78.5871 129.006 78.4039 128.4 78.6648 127.913L115.649 58.8815Z" fill="white" stroke="#38393D" stroke-width="4" mask="url(#path-4-inside-1_378_1301)"/>
<rect x="1.35371" y="-0.409216" width="17.7495" height="8.53309" transform="matrix(0.881465 0.472249 0.472249 -0.881465 107.299 73.7197)" fill="white" stroke="#38393D" stroke-width="2"/>
<path d="M94.4561 137.148L76.9921 151.948L79.6388 129.21L94.4561 137.148Z" fill="#D2DC32" stroke="#38393D" stroke-width="2"/>
</svg>
