<svg width="100" height="100" viewBox="0 0 100 100" fill="none" xmlns="http://www.w3.org/2000/svg">
<path d="M30 -3.0598e-06L100 4.38221e-08L100 100L30 -3.0598e-06Z" fill="#FCE898"/>
<mask id="path-2-inside-1_419_3599" fill="white">
<rect x="28" y="8" width="44" height="84" rx="1"/>
</mask>
<rect x="28" y="8" width="44" height="84" rx="1" fill="white" stroke="#38393D" stroke-width="4" mask="url(#path-2-inside-1_419_3599)"/>
<mask id="path-3-inside-2_419_3599" fill="white">
<rect width="44" height="14" rx="1" transform="matrix(1 0 0 -1 28 92)"/>
</mask>
<rect width="44" height="14" rx="1" transform="matrix(1 0 0 -1 28 92)" fill="#FAD232" stroke="#38393D" stroke-width="4" mask="url(#path-3-inside-2_419_3599)"/>
<mask id="path-4-inside-3_419_3599" fill="white">
<rect width="44" height="10" rx="1" transform="matrix(1 0 0 -1 28 18)"/>
</mask>
<rect width="44" height="10" rx="1" transform="matrix(1 0 0 -1 28 18)" fill="#FAD232" stroke="#38393D" stroke-width="4" mask="url(#path-4-inside-3_419_3599)"/>
<path d="M50 85H49" stroke="#38393D" stroke-width="2" stroke-linecap="round"/>
<path d="M38 85H37" stroke="#38393D" stroke-width="2" stroke-linecap="round"/>
<path d="M62 85H61" stroke="#38393D" stroke-width="2" stroke-linecap="round"/>
<path d="M54 13L46 13" stroke="#38393D" stroke-width="2" stroke-linecap="round"/>
<path d="M50 51L46 47" stroke="#38393D" stroke-width="2" stroke-linecap="round"/>
<path d="M50 51L55 43" stroke="#38393D" stroke-width="2" stroke-linecap="round"/>
</svg>
