<svg width="152" height="152" viewBox="0 0 152 152" fill="none" xmlns="http://www.w3.org/2000/svg">
<path d="M48 -4.54598e-06L152 6.52949e-08L152 149L48 -4.54598e-06Z" fill="#FCE898"/>
<circle cx="54" cy="87" r="45" fill="white" stroke="#38393D" stroke-width="2"/>
<path d="M59 35.01C86.352 35.5572 108.484 58.5024 108.991 87H59V35.01Z" fill="#FAD232" stroke="#38393D" stroke-width="2"/>
<mask id="path-4-inside-1_378_1269" fill="white">
<path d="M109.842 55.9814C110.103 55.4946 110.709 55.3114 111.196 55.5722L125.971 63.4881C126.458 63.7489 126.641 64.355 126.38 64.8418L91.2926 130.334C91.0318 130.821 90.4257 131.004 89.9389 130.743L75.1638 122.827C74.6769 122.566 74.4937 121.96 74.7545 121.473L109.842 55.9814Z"/>
</mask>
<path d="M109.842 55.9814C110.103 55.4946 110.709 55.3114 111.196 55.5722L125.971 63.4881C126.458 63.7489 126.641 64.355 126.38 64.8418L91.2926 130.334C91.0318 130.821 90.4257 131.004 89.9389 130.743L75.1638 122.827C74.6769 122.566 74.4937 121.96 74.7545 121.473L109.842 55.9814Z" fill="white" stroke="#38393D" stroke-width="4" mask="url(#path-4-inside-1_378_1269)"/>
<rect x="1.35371" y="-0.409216" width="16.7621" height="8.00643" transform="matrix(0.881465 0.472249 0.472249 -0.881465 101.951 69.9632)" fill="white" stroke="#38393D" stroke-width="2"/>
<path d="M89.6447 130.3L73.2066 144.23L75.6978 122.828L89.6447 130.3Z" fill="#FAD232" stroke="#38393D" stroke-width="2"/>
</svg>
