<svg width="100" height="100" viewBox="0 0 100 100" fill="none" xmlns="http://www.w3.org/2000/svg">
<g clip-path="url(#clip0_419_3578)">
<path d="M30 -3.0598e-06L100 4.38221e-08L100 100L30 -3.0598e-06Z" fill="#DF93C5"/>
<mask id="path-2-inside-1_419_3578" fill="white">
<rect width="86" height="64" rx="1" transform="matrix(1 0 0 -1 7 82)"/>
</mask>
<rect width="86" height="64" rx="1" transform="matrix(1 0 0 -1 7 82)" fill="white" stroke="#38393D" stroke-width="4" mask="url(#path-2-inside-1_419_3578)"/>
<mask id="path-3-inside-2_419_3578" fill="white">
<rect width="16" height="64" rx="1" transform="matrix(1 0 0 -1 77 82)"/>
</mask>
<rect width="16" height="64" rx="1" transform="matrix(1 0 0 -1 77 82)" fill="#BE288C" stroke="#38393D" stroke-width="4" mask="url(#path-3-inside-2_419_3578)"/>
<path d="M57 25H72" stroke="#38393D" stroke-width="2" stroke-linecap="round"/>
<path d="M72 40L72 25" stroke="#38393D" stroke-width="2" stroke-linecap="round"/>
<path d="M29 75H14" stroke="#38393D" stroke-width="2" stroke-linecap="round"/>
<path d="M14 60L14 75" stroke="#38393D" stroke-width="2" stroke-linecap="round"/>
<path d="M85 25H84" stroke="#38393D" stroke-width="2" stroke-linecap="round"/>
<path d="M85 31H84" stroke="#38393D" stroke-width="2" stroke-linecap="round"/>
<path d="M85 37H84" stroke="#38393D" stroke-width="2" stroke-linecap="round"/>
<path d="M85 43H84" stroke="#38393D" stroke-width="2" stroke-linecap="round"/>
<path d="M85 49H84" stroke="#38393D" stroke-width="2" stroke-linecap="round"/>
</g>
<defs>
<clipPath id="clip0_419_3578">
<rect width="100" height="100" fill="white"/>
</clipPath>
</defs>
</svg>
