<svg width="486" height="71" viewBox="0 0 486 71" fill="none" xmlns="http://www.w3.org/2000/svg">
<path fill-rule="evenodd" clip-rule="evenodd" d="M485.634 33.8297C484.959 32.8906 482.676 31.7651 481.269 32.8906C480.079 33.8442 478.264 37.7473 476.624 40.1358C471.432 47.6959 463.671 54.6444 454.482 57.3334C447.421 59.3998 440.238 56.8538 440.451 48.892C453.708 55.9382 468.487 44.7085 467.58 30.7554C467.002 21.8816 458.857 16.6033 449.181 17.309C440.617 17.935 434.306 22.5529 429.847 27.9398C425.258 33.4859 421.74 40.9754 421.74 50.1424C421.74 50.1695 421.741 50.1949 421.741 50.222C421.658 50.3052 421.577 50.3903 421.492 50.4735C419.61 52.3337 413.009 57.1325 413.529 51.087C414.101 43.373 421.534 26.0706 424.298 12.9517C426.108 4.36558 422.216 -0.905503 413.697 0.131343C408.224 0.79724 402.491 4.42529 399.757 7.80545C401.504 11.4805 401.54 19.4134 400.6 23.8955C396.767 21.4672 392.943 19.4007 387.189 19.5184C373.72 19.7934 366.007 33.6397 365.359 47.6597C365.356 47.7629 365.354 47.866 365.35 47.9692C364.374 49.1327 363.398 50.1786 362.497 50.9567C360.758 52.4586 357.095 55.0878 355.637 53.7704C353.404 51.856 356.304 43.6734 357.82 39.3867C359.395 34.9281 361.658 30.7282 363.122 26.5664C361.666 23.8901 359.78 21.27 356.423 20.4285C351.181 19.1148 346.697 21.9141 344.106 25.2943C340.156 21.3062 333.918 18.8995 327.573 19.3736C314.912 20.3163 307.333 34.6729 306.886 48.199C305.884 49.3734 304.845 50.4699 303.723 51.5411C302.026 53.1552 297.189 57.7966 296.487 53.262C295.799 47.1639 302.194 40.856 301.851 32.1541C301.62 26.3167 296.635 22.7538 291.56 22.4606C284.021 22.0263 277.66 27.073 273.997 30.9816C273.212 27.7661 271.37 24.936 269.11 23.711C261.151 19.4007 252.013 25.5874 247.568 30.7463C249.086 25.8788 247.104 22.1729 242.29 22.4588C236.034 22.8316 230.418 28.7124 227.323 32.7784C228.723 36.6254 227.628 41.6775 226.239 46.8998C225.23 48.1411 224.169 49.3263 223.01 50.4717C221.128 52.3319 214.529 57.1307 215.047 51.0851C215.619 43.3712 223.052 26.0688 225.816 12.9499C227.626 4.36377 223.734 -0.907312 215.213 0.129533C209.74 0.79543 204.007 4.42348 201.273 7.80364C203.02 11.4787 203.058 19.4116 202.116 23.8937C198.283 21.4654 194.459 19.3989 188.707 19.5166C175.238 19.7916 167.523 33.6379 166.877 47.6579C166.865 47.9511 166.854 48.2442 166.847 48.5374C166.035 49.4711 165.234 50.3071 164.483 50.9549C162.743 52.4567 159.08 55.086 157.622 53.7686C155.39 51.8542 158.29 43.6716 159.806 39.3849C161.381 34.9263 163.644 30.7264 165.107 26.5646C163.651 23.8883 161.765 21.2681 158.409 20.4267C153.167 19.113 148.684 21.9123 146.091 25.2925C142.139 21.3043 135.903 18.8977 129.558 19.3718C117.603 20.2639 110.18 33.1132 109.012 45.9281C104.254 51.0652 98.2663 55.3519 91.5066 57.3297C84.4455 59.3962 77.2618 56.8502 77.4729 48.8884C90.7307 55.9346 105.51 44.7048 104.604 30.7518C104.026 21.878 95.8807 16.5996 86.2049 17.3053C77.6371 17.9314 71.3285 22.5493 66.8714 27.9362C62.463 33.2633 59.0452 40.3837 58.7836 49.0639C57.9138 50.0392 57.0693 50.8933 56.2988 51.5538C54.7938 52.8476 51.7875 54.677 50.4575 53.4646C47.2798 50.7033 54.0648 40.4235 54.8172 33.2959C55.8242 23.7508 50.1869 19.3392 43.5914 19.2252C35.4386 19.0841 29.0849 25.2183 25.3947 28.5025C27.2425 21.7332 35.3989 4.20634 25.8169 0.777335C18.0738 -1.99482 10.1231 3.61283 5.78865 7.76021C8.7264 17.917 5.53061 31.9985 3.46985 41.4188C2.03707 47.9674 0.209099 53.8012 0.0106025 59.6604C-0.379172 71.167 10.0617 74.2088 17.4927 67.434C18.1243 57.0529 20.9808 48.4035 22.7998 38.8674C25.4723 37.3347 28.1141 35.7333 30.8046 36.4245C37.4181 38.1255 30.6422 51.219 29.8699 55.8116C28.632 63.16 31.4344 69.8406 37.9775 70.8214C47.5144 72.2509 55.3712 64.6564 60.2344 59.2351C63.3255 67.7434 71.1445 72.0573 82.152 70.7762C92.6886 69.5475 102.283 63.8711 109.591 56.6656C110.264 59.7617 111.4 62.6225 113.031 65.0256C114.126 66.6414 116.124 68.7495 118.02 69.7158C124.834 73.1882 132.002 68.9703 135.483 64.7125C136.822 63.0749 137.581 61.5712 138.696 59.2912C138.933 63.3011 140.151 66.2307 142.031 68.1524C147.903 74.1527 156.812 69.1675 161.677 65.3386C164.035 63.482 166.166 61.4427 168.119 59.2569C169.942 65.3802 173.852 70.1844 180.803 70.8558C188.84 71.632 193.283 64.8301 196.616 59.436C197.155 63.4205 198.312 66.3773 200.299 68.27C206.42 74.093 214.641 69.3684 219.578 65.4815C220.915 64.4284 222.179 63.3101 223.382 62.1376C223.505 64.3886 224.102 66.4225 225.45 68.1126C228.227 71.5904 236.03 72.6472 240.085 67.1734C240.085 58.3141 243.618 49.6629 245.408 40.9067C246.971 39.2618 252.868 36.9457 254.081 40.3584C255.625 45.0233 249.461 54.3441 250.085 62.1702C250.749 70.4921 260.456 73.8957 266.929 67.4829C266.959 60.6194 271.344 46.4836 272.773 40.6968C272.773 40.6968 279.062 36.2671 281.505 40.2281C283.637 43.7205 278.026 53.1244 278.18 60.1887C278.311 66.3809 281.401 71.395 289.377 70.9263C295.426 70.5699 303.326 64.3977 308.133 58.7285C308.817 61.032 309.78 63.1654 311.044 65.0237C312.139 66.6396 314.135 68.7477 316.033 69.714C322.845 73.1864 330.014 68.9685 333.495 64.7107C334.834 63.0731 335.596 61.5694 336.711 59.2894C336.947 63.2993 338.165 66.2289 340.046 68.1506C345.918 74.1509 354.825 69.1657 359.691 65.3368C362.192 63.368 364.437 61.1876 366.485 58.8497C368.254 65.1649 372.18 70.1682 379.285 70.854C387.322 71.6302 391.765 64.8283 395.098 59.4342C395.639 63.4187 396.792 66.3754 398.781 68.2682C404.902 74.0912 413.123 69.3666 418.062 65.4797C420.07 63.8982 421.924 62.1684 423.643 60.3281C426.991 68.1108 434.602 72.0012 445.128 70.7743C460.905 68.9359 474.577 57.1271 481.613 45.1319C483.633 41.6938 487.142 35.9125 485.634 33.8297ZM451.77 27.9633C456.531 28.8789 452.685 43.5739 441.075 41.0732C441.77 35.4456 446.032 27.7317 451.77 27.9633ZM88.7944 27.9633C93.5547 28.8789 89.7093 43.5739 78.0991 41.0732C78.7956 35.4456 83.0579 27.7317 88.7944 27.9633ZM140.102 44.7555C139.274 47.6362 136.129 54.6698 132.514 55.9618C128.719 57.3153 127.146 53.0466 127.065 49.3951C126.96 44.7356 130.047 35.708 133.925 33.1349C137.114 31.0178 141.264 31.6674 141.721 35.3226C142.02 37.731 140.625 41.5907 138.913 43.4545C139.4 44.4226 140.102 44.7555 140.102 44.7555ZM198 45.0161C196.915 47.8624 191.751 60.0132 186.525 55.1656C185.606 54.3133 184.998 51.4434 184.966 49.5362C184.834 41.8947 190.594 28.9622 197.975 32.3514C201.197 33.8876 198.691 41.8784 196.695 44.1348L198 45.0161ZM338.117 44.7555C337.287 47.6362 334.143 54.6698 330.529 55.9618C326.736 57.3153 325.16 53.0466 325.081 49.3951C324.974 44.7356 328.064 35.708 331.942 33.1349C335.13 31.0178 339.281 31.6674 339.735 35.3226C340.037 37.731 338.64 41.5907 336.929 43.4545C337.417 44.4226 338.117 44.7555 338.117 44.7555ZM396.484 45.0161C395.397 47.8624 390.233 60.0132 385.009 55.1656C384.09 54.3133 383.482 51.4434 383.45 49.5362C383.318 41.8947 389.078 28.9622 396.458 32.3514C399.679 33.8876 397.175 41.8784 395.177 44.1348L396.484 45.0161Z" fill="#38393D"/>
</svg>
