<svg width="100" height="100" viewBox="0 0 100 100" fill="none" xmlns="http://www.w3.org/2000/svg">
<g clip-path="url(#clip0_419_3618)">
<path d="M30 -3.0598e-06L100 4.38221e-08L100 100L30 -3.0598e-06Z" fill="#96D2EB"/>
<mask id="path-2-inside-1_419_3618" fill="white">
<rect width="86" height="64" rx="1" transform="matrix(1 0 0 -1 7 82)"/>
</mask>
<rect width="86" height="64" rx="1" transform="matrix(1 0 0 -1 7 82)" fill="white" stroke="#38393D" stroke-width="4" mask="url(#path-2-inside-1_419_3618)"/>
<path d="M55 56V49" stroke="#38393D" stroke-width="2" stroke-linecap="round"/>
<path d="M44 60L55 49" stroke="#38393D" stroke-width="2" stroke-linecap="round"/>
<path d="M48 49H55" stroke="#38393D" stroke-width="2" stroke-linecap="round"/>
<mask id="path-6-inside-2_419_3618" fill="white">
<rect width="86" height="14" rx="1" transform="matrix(1 0 0 -1 7 32)"/>
</mask>
<rect width="86" height="14" rx="1" transform="matrix(1 0 0 -1 7 32)" fill="#2D91CD" stroke="#38393D" stroke-width="4" mask="url(#path-6-inside-2_419_3618)"/>
<path d="M15 25H30" stroke="#38393D" stroke-width="2" stroke-linecap="round"/>
<path d="M85 25H84" stroke="#38393D" stroke-width="2" stroke-linecap="round"/>
<path d="M78 25H77" stroke="#38393D" stroke-width="2" stroke-linecap="round"/>
<path d="M71 25H70" stroke="#38393D" stroke-width="2" stroke-linecap="round"/>
</g>
<defs>
<clipPath id="clip0_419_3618">
<rect width="100" height="100" fill="white"/>
</clipPath>
</defs>
</svg>
