<svg width="200" height="30" viewBox="0 0 200 30" fill="none" xmlns="http://www.w3.org/2000/svg">
<path fill-rule="evenodd" clip-rule="evenodd" d="M199.849 14.2942C199.572 13.8974 198.632 13.4219 198.053 13.8974C197.564 14.3004 196.816 15.9496 196.141 16.9588C194.005 20.1532 190.811 23.0892 187.03 24.2254C184.124 25.0985 181.168 24.0227 181.255 20.6586C186.711 23.6359 192.793 18.8909 192.42 12.9952C192.182 9.24574 188.83 7.01546 184.848 7.31364C181.324 7.57819 178.727 9.52939 176.892 11.8055C175.003 14.149 173.555 17.3136 173.555 21.1869C173.555 21.1984 173.556 21.2091 173.556 21.2206C173.522 21.2557 173.489 21.2917 173.454 21.3268C172.679 22.1128 169.963 24.1405 170.177 21.586C170.412 18.3266 173.471 11.0157 174.608 5.47254C175.353 1.84461 173.751 -0.382607 170.246 0.0554969C167.993 0.336862 165.634 1.86984 164.509 3.29808C165.228 4.85094 165.243 8.20285 164.856 10.0967C163.279 9.07065 161.705 8.1975 159.337 8.24719C153.794 8.36341 150.62 14.214 150.354 20.1379C150.352 20.1815 150.351 20.2251 150.35 20.2687C149.948 20.7603 149.546 21.2022 149.176 21.531C148.46 22.1656 146.953 23.2765 146.353 22.7199C145.434 21.911 146.627 18.4536 147.251 16.6423C147.899 14.7583 148.831 12.9838 149.433 11.2252C148.834 10.0944 148.058 8.98731 146.676 8.63178C144.519 8.07669 142.674 9.2595 141.607 10.6877C139.982 9.0026 137.415 7.98571 134.804 8.18603C129.594 8.58437 126.475 14.6505 126.291 20.3658C125.878 20.862 125.451 21.3253 124.989 21.7779C124.291 22.46 122.3 24.4211 122.011 22.5051C121.728 19.9284 124.36 17.2631 124.219 13.5862C124.124 11.1197 122.072 9.61426 119.984 9.4904C116.881 9.3069 114.263 11.4393 112.756 13.0908C112.433 11.7321 111.675 10.5363 110.745 10.0187C107.469 8.1975 103.709 10.8116 101.88 12.9914C102.504 10.9347 101.689 9.36883 99.7077 9.48964C97.1332 9.64714 94.8222 12.132 93.5486 13.85C94.1249 15.4755 93.6741 17.6102 93.1023 19.8168C92.6872 20.3413 92.2506 20.8421 91.7738 21.3261C90.9993 22.1121 88.2836 24.1397 88.4967 21.5853C88.7322 18.3259 91.7909 11.015 92.9286 5.47177C93.6734 1.84385 92.0716 -0.383371 88.5651 0.0547323C86.3128 0.336097 83.9535 1.86908 82.8285 3.29731C83.5473 4.85017 83.5629 8.20208 83.1753 10.0959C81.598 9.06988 80.0245 8.19673 77.6571 8.24643C72.1143 8.36265 68.9397 14.2132 68.6739 20.1372C68.6687 20.261 68.6642 20.3849 68.6612 20.5087C68.3271 20.9033 67.9973 21.2565 67.6884 21.5302C66.9726 22.1648 65.4651 23.2758 64.8651 22.7191C63.9465 21.9102 65.1398 18.4528 65.7636 16.6415C66.4119 14.7576 67.3431 12.983 67.9454 11.2245C67.3461 10.0937 66.5701 8.98654 65.1888 8.63101C63.0316 8.07593 61.187 9.25873 60.1199 10.687C58.4936 9.00183 55.9272 7.98494 53.3162 8.18526C48.3965 8.5622 45.3414 13.9915 44.861 19.4062C42.9027 21.5769 40.4388 23.3881 37.657 24.2238C34.7512 25.097 31.795 24.0212 31.8819 20.6571C37.3377 23.6343 43.4196 18.8894 43.0468 12.9937C42.8092 9.24421 39.4571 7.01393 35.4753 7.31211C31.9494 7.57666 29.3533 9.52786 27.5191 11.804C25.7049 14.0549 24.2984 17.0636 24.1908 20.7312C23.8328 21.1433 23.4853 21.5042 23.1682 21.7833C22.5489 22.33 21.3117 23.103 20.7644 22.5907C19.4567 21.4239 22.2489 17.0804 22.5585 14.0687C22.9729 10.0355 20.653 8.1715 17.9388 8.12333C14.5838 8.0637 11.9691 10.6556 10.4505 12.0433C11.2109 9.18304 14.5674 1.77733 10.6243 0.328452C7.43776 -0.842883 4.16588 1.52655 2.38216 3.27896C3.59111 7.57054 2.27597 13.5205 1.42792 17.5009C0.8383 20.2679 0.0860489 22.7329 0.00436316 25.2086C-0.156038 30.0706 4.14063 31.3558 7.19865 28.4932C7.45856 24.1069 8.63409 20.4522 9.38263 16.4228C10.4824 15.7752 11.5696 15.0986 12.6768 15.3907C15.3984 16.1094 12.61 21.6419 12.2921 23.5824C11.7827 26.6873 12.936 29.5101 15.6286 29.9245C19.5532 30.5286 22.7865 27.3196 24.7878 25.0289C26.0599 28.624 29.2776 30.4467 33.8074 29.9054C38.1434 29.3863 42.0918 26.9878 45.0993 23.9432C45.3763 25.2514 45.8434 26.4602 46.5147 27.4756C46.9655 28.1584 47.7875 29.0491 48.568 29.4574C51.3721 30.9246 54.3217 29.1424 55.7541 27.3433C56.3051 26.6514 56.6178 26.016 57.0767 25.0526C57.174 26.7469 57.6752 27.9848 58.449 28.7968C60.8654 31.3321 64.5316 29.2257 66.5337 27.6079C67.5043 26.8234 68.3813 25.9617 69.1848 25.0381C69.9348 27.6254 71.544 29.6554 74.4045 29.9391C77.712 30.2671 79.5403 27.393 80.9118 25.1138C81.1339 26.7974 81.6099 28.0467 82.4275 28.8465C84.9464 31.3069 88.3297 29.3106 90.3614 27.6683C90.9117 27.2233 91.4315 26.7508 91.9268 26.2553C91.9773 27.2065 92.2231 28.0658 92.7778 28.78C93.9207 30.2495 97.1317 30.696 98.8003 28.3831C98.8003 24.6398 100.254 20.9843 100.991 17.2845C101.634 16.5895 104.061 15.6109 104.56 17.0529C105.196 19.0239 102.659 22.9623 102.916 26.2691C103.189 29.7854 107.183 31.2236 109.847 28.5139C109.86 25.6138 111.664 19.6409 112.252 17.1958C112.252 17.1958 114.84 15.3241 115.846 16.9978C116.723 18.4734 114.414 22.447 114.477 25.4319C114.531 28.0483 115.803 30.1669 119.085 29.9689C121.574 29.8183 124.825 27.2103 126.804 24.8149C127.085 25.7882 127.482 26.6896 128.001 27.4748C128.452 28.1576 129.274 29.0483 130.055 29.4566C132.858 30.9238 135.808 29.1416 137.241 27.3426C137.792 26.6506 138.105 26.0152 138.564 25.0519C138.661 26.7462 139.163 27.984 139.936 28.796C142.353 31.3314 146.018 29.2249 148.021 27.6071C149.05 26.7752 149.974 25.8539 150.817 24.8661C151.545 27.5345 153.161 29.6485 156.084 29.9383C159.392 30.2663 161.22 27.3922 162.592 25.113C162.814 26.7966 163.289 28.046 164.107 28.8457C166.626 31.3061 170.009 29.3098 172.042 27.6675C172.868 26.9993 173.631 26.2683 174.339 25.4907C175.716 28.7792 178.849 30.423 183.18 29.9047C189.673 29.1278 195.299 24.1382 198.195 19.0698C199.026 17.6171 200.47 15.1743 199.849 14.2942ZM185.914 11.8155C187.873 12.2024 186.29 18.4115 181.512 17.3549C181.798 14.977 183.552 11.7176 185.914 11.8155ZM36.5409 11.8155C38.4999 12.2024 36.9174 18.4115 32.1395 17.3549C32.4262 14.977 34.1802 11.7176 36.5409 11.8155ZM57.6552 18.9108C57.3143 20.128 56.02 23.0999 54.5326 23.6458C52.9709 24.2177 52.3233 22.4141 52.2899 20.8712C52.2468 18.9024 53.5174 15.0879 55.1133 14.0007C56.4254 13.1061 58.1334 13.3806 58.3213 14.925C58.4446 15.9427 57.8705 17.5735 57.1658 18.361C57.3663 18.7701 57.6552 18.9108 57.6552 18.9108ZM81.4814 19.0209C81.0351 20.2236 78.9098 25.3577 76.7593 23.3094C76.3813 22.9493 76.131 21.7367 76.1177 20.9308C76.0634 17.702 78.4338 12.2375 81.471 13.6696C82.7973 14.3187 81.7658 17.6951 80.9445 18.6485L81.4814 19.0209ZM139.143 18.9108C138.801 20.128 137.507 23.0999 136.02 23.6458C134.459 24.2177 133.811 22.4141 133.778 20.8712C133.734 18.9024 135.006 15.0879 136.601 14.0007C137.914 13.1061 139.622 13.3806 139.809 14.925C139.933 15.9427 139.358 17.5735 138.654 18.361C138.855 18.7701 139.143 18.9108 139.143 18.9108ZM163.162 19.0209C162.715 20.2236 160.59 25.3577 158.44 23.3094C158.062 22.9493 157.812 21.7367 157.798 20.9308C157.744 17.702 160.114 12.2375 163.152 13.6696C164.477 14.3187 163.446 17.6951 162.624 18.6485L163.162 19.0209Z" fill="#38393D"/>
</svg>
